#N canvas 43 154 1182 649 10;
#X obj 67 -303 osc~ 440;
#X obj 77 -122 adc~ 1 2 3 4 5 6 7 8;
#X obj 26 -8 env~;
#X floatatom 26 20 5 0 0 0 - - -;
#X obj 80 -31 env~;
#X floatatom 80 -3 5 0 0 0 - - -;
#X obj 116 -31 env~;
#X floatatom 116 -3 5 0 0 0 - - -;
#X obj 171 -8 env~;
#X floatatom 171 20 5 0 0 0 - - -;
#X obj 24 55 env~;
#X floatatom 24 83 5 0 0 0 - - -;
#X obj 78 87 env~;
#X floatatom 78 115 5 0 0 0 - - -;
#X obj 114 87 env~;
#X floatatom 114 115 5 0 0 0 - - -;
#X obj 171 53 env~;
#X floatatom 171 81 5 0 0 0 - - -;
#X obj 979 -65 sendOSC;
#X msg 902 -145 connect localhost 8000;
#X obj 945 -312 loadbang;
#X obj 967 -259 metro 10000;
#X obj 969 -235 bng 15 250 50 0 empty empty empty 17 7 0 10 -262144
-1 -1;
#X msg 960 -289 1;
#X obj 935 22 dumpOSC 8001;
#X msg 971 -172 send /syn 8001;
#X obj 935 57 OSCroute /ack;
#X obj 935 99 bng 15 250 50 0 empty empty empty 17 7 0 10 -262144 -1
-1;
#X text 809 -357 active clients must send a period /syn in order to
recieve data back;
#X obj 124 -303 osc~ 320;
#X obj 76 -254 dac~ 1 2;
#X obj 218 -9 env~;
#X floatatom 218 19 5 0 0 0 - - -;
#X obj 272 -32 env~;
#X floatatom 272 -4 5 0 0 0 - - -;
#X obj 308 -32 env~;
#X floatatom 308 -4 5 0 0 0 - - -;
#X obj 363 -9 env~;
#X floatatom 363 19 5 0 0 0 - - -;
#X obj 216 54 env~;
#X floatatom 216 82 5 0 0 0 - - -;
#X obj 270 86 env~;
#X floatatom 270 114 5 0 0 0 - - -;
#X obj 306 86 env~;
#X floatatom 306 114 5 0 0 0 - - -;
#X obj 363 52 env~;
#X floatatom 363 80 5 0 0 0 - - -;
#X obj 269 -123 adc~ 9 10 11 12 13 14 15 16;
#X obj 415 -9 env~;
#X floatatom 415 19 5 0 0 0 - - -;
#X obj 469 -32 env~;
#X floatatom 469 -4 5 0 0 0 - - -;
#X obj 505 -32 env~;
#X floatatom 505 -4 5 0 0 0 - - -;
#X obj 560 -9 env~;
#X floatatom 560 19 5 0 0 0 - - -;
#X obj 413 54 env~;
#X floatatom 413 82 5 0 0 0 - - -;
#X obj 467 86 env~;
#X floatatom 467 114 5 0 0 0 - - -;
#X obj 503 86 env~;
#X floatatom 503 114 5 0 0 0 - - -;
#X obj 560 52 env~;
#X floatatom 560 80 5 0 0 0 - - -;
#X obj 466 -123 adc~ 17 18 19 20 21 22 23 24;
#X connect 0 0 30 0;
#X connect 1 0 4 0;
#X connect 1 1 6 0;
#X connect 1 2 2 0;
#X connect 1 3 8 0;
#X connect 1 4 10 0;
#X connect 1 5 16 0;
#X connect 1 6 12 0;
#X connect 1 7 14 0;
#X connect 2 0 3 0;
#X connect 4 0 5 0;
#X connect 6 0 7 0;
#X connect 8 0 9 0;
#X connect 10 0 11 0;
#X connect 12 0 13 0;
#X connect 14 0 15 0;
#X connect 16 0 17 0;
#X connect 19 0 18 0;
#X connect 20 0 19 0;
#X connect 20 0 23 0;
#X connect 21 0 22 0;
#X connect 22 0 25 0;
#X connect 23 0 21 0;
#X connect 24 0 26 0;
#X connect 25 0 18 0;
#X connect 26 0 27 0;
#X connect 29 0 30 1;
#X connect 31 0 32 0;
#X connect 33 0 34 0;
#X connect 35 0 36 0;
#X connect 37 0 38 0;
#X connect 39 0 40 0;
#X connect 41 0 42 0;
#X connect 43 0 44 0;
#X connect 45 0 46 0;
#X connect 47 0 33 0;
#X connect 47 1 35 0;
#X connect 47 2 31 0;
#X connect 47 3 37 0;
#X connect 47 4 39 0;
#X connect 47 5 45 0;
#X connect 47 6 41 0;
#X connect 47 7 43 0;
#X connect 48 0 49 0;
#X connect 50 0 51 0;
#X connect 52 0 53 0;
#X connect 54 0 55 0;
#X connect 56 0 57 0;
#X connect 58 0 59 0;
#X connect 60 0 61 0;
#X connect 62 0 63 0;
#X connect 64 0 50 0;
#X connect 64 1 52 0;
#X connect 64 2 48 0;
#X connect 64 3 54 0;
#X connect 64 4 56 0;
#X connect 64 5 62 0;
#X connect 64 6 58 0;
#X connect 64 7 60 0;
