#N canvas 420 305 548 527 10;
#X obj 112 152 vsl 15 128 0 0 0 0 empty empty empty 0 -9 0 10 -262144
-1 -1 11100 1;
#X obj 213 501 s osc;
#X floatatom 108 104 5 0 0 0 - - -;
#X floatatom 108 125 5 0 0 0 - - -;
#X obj 130 150 vradio 15 1 0 2 empty empty empty 0 -8 0 10 -262144
-1 -1 0;
#X text 193 143 osc address \$1 min \$2 max \$3 default \$4;
#X obj 183 114 f \$2;
#X obj 216 115 f \$3;
#X obj 181 55 loadbang;
#X obj 316 99 f \$4;
#X msg 200 192 range \$1 \$2;
#X obj 200 169 pack 0 1;
#X obj 181 86 t b b b;
#X obj 69 103 t b;
#X obj 112 315 clip \$2 \$3;
#X msg 317 121 set \$1;
#X obj 205 371 gate 2;
#X obj 203 344 + 1;
#X obj 253 404 *;
#X obj 253 425 *;
#X obj 103 286 nbx 4 14 0 0 0 0 empty empty empty 0 -8 0 10 -262144
-1 -1 0 256;
#X obj 103 301 nbx 4 14 -1e+37 1e+37 0 0 empty empty empty 0 -8 0 10
-262144 -1 -1 0 256;
#X obj 108 494 print;
#X obj 18 18 ctlin \$1;
#X obj 104 428 i \$1;
#X obj 162 401 t b;
#X obj 105 458 sprintf send /fader%d %f;
#X obj 18 40 * 0.00787402;
#X obj -77 147 expr $f1 * ($f3-$f2) + $f2;
#X connect 0 0 20 0;
#X connect 2 0 11 0;
#X connect 2 0 28 1;
#X connect 3 0 11 1;
#X connect 3 0 13 0;
#X connect 3 0 28 2;
#X connect 4 0 17 0;
#X connect 6 0 2 0;
#X connect 6 0 11 0;
#X connect 7 0 3 0;
#X connect 7 0 11 1;
#X connect 8 0 12 0;
#X connect 8 0 4 0;
#X connect 9 0 15 0;
#X connect 10 0 0 0;
#X connect 10 0 20 0;
#X connect 11 0 10 0;
#X connect 12 0 9 0;
#X connect 12 1 6 0;
#X connect 12 2 7 0;
#X connect 13 0 2 0;
#X connect 14 0 16 1;
#X connect 15 0 0 0;
#X connect 15 0 20 0;
#X connect 16 0 21 0;
#X connect 16 0 25 0;
#X connect 16 0 26 1;
#X connect 16 1 18 0;
#X connect 16 1 18 1;
#X connect 17 0 16 0;
#X connect 18 0 19 1;
#X connect 18 0 19 0;
#X connect 19 0 21 0;
#X connect 19 0 25 0;
#X connect 19 0 26 1;
#X connect 20 0 14 0;
#X connect 23 0 27 0;
#X connect 24 0 26 0;
#X connect 25 0 24 0;
#X connect 26 0 22 0;
#X connect 26 0 1 0;
#X connect 27 0 28 0;
#X connect 28 0 0 0;
#X coords 0 -1 1 1 50 218 2 100 100;
