#N canvas 44 175 924 579 10;
#X obj 774 -26 r osc;
#X obj 760 -3 sendOSC;
#X msg 760 -50 connect localhost 8000;
#X obj 760 -75 loadbang;
#X obj 0 0 bs_fader 1 0 1 0;
#X obj 50 0 bs_fader 2 0 1 0;
#X obj 100 0 bs_fader 3 0 1 0;
#X obj 150 0 bs_fader 4 0 1 0;
#X obj 200 0 bs_fader 5 0 1 0;
#X obj 250 0 bs_fader 6 0 1 0;
#X obj 300 0 bs_fader 7 0 1 0;
#X obj 350 0 bs_fader 8 0 1 0;
#X obj 400 0 bs_fader 9 0 1 0;
#X obj 450 0 bs_fader 10 0 1 0;
#X obj 500 0 bs_fader 11 0 1 0;
#X obj 550 0 bs_fader 12 0 1 0;
#X obj 600 0 bs_fader 13 0 1 0;
#X obj 650 0 bs_fader 14 0 1 0;
#X obj 700 0 bs_fader 15 0 1 0;
#X obj 750 0 bs_fader 16 0 1 0;
#X obj 0 250 bs_fader 17 0 1 0;
#X obj 50 250 bs_fader 18 0 1 0;
#X obj 100 250 bs_fader 19 0 1 0;
#X obj 150 250 bs_fader 20 0 1 0;
#X obj 200 250 bs_fader 21 0 1 0;
#X obj 250 250 bs_fader 22 0 1 0;
#X obj 300 250 bs_fader 23 0 1 0;
#X obj 350 250 bs_fader 24 0 1 0;
#X obj 400 250 bs_fader 25 0 1 0;
#X obj 450 250 bs_fader 26 0 1 0;
#X obj 500 250 bs_fader 27 0 1 0;
#X obj 550 250 bs_fader 28 0 1 0;
#X obj 600 250 bs_fader 29 0 1 0;
#X obj 650 250 bs_fader 30 0 1 0;
#X obj 700 250 bs_fader 31 0 1 0;
#X obj 750 250 bs_fader 32 0 1 0;
#X connect 0 0 1 0;
#X connect 2 0 1 0;
#X connect 3 0 2 0;
