#N canvas 73 62 1056 591 10;
#X obj 847 -46 r osc;
#X obj 833 -23 sendOSC;
#X msg 833 -70 connect localhost 8000;
#X obj 833 -95 loadbang;
#X obj 250 0 bs_fader 6 0 1 0;
#X obj 0 0 bs_fader 1 0 1 0;
#X obj 50 0 bs_fader 2 0 1 0;
#X obj 100 0 bs_fader 3 0 1 0;
#X obj 150 0 bs_fader 4 0 1 0;
#X obj 200 1 bs_fader 5 0 1 0;
#X obj 300 0 bs_fader 7 0 1 0;
#X obj 350 0 bs_fader 8 0 1 0;
#X obj 400 0 bs_fader 9 0 1 0;
#X obj 450 0 bs_fader 10 0 1 0;
#X obj 500 0 bs_fader 11 0 1 0;
#X obj 550 0 bs_fader 12 0 1 0;
#X obj 600 0 bs_fader 13 0 1 0;
#X obj 650 0 bs_fader 14 0 1 0;
#X obj 700 0 bs_fader 15 0 1 0;
#X obj 750 0 bs_fader 16 0 1 0;
#X obj 0 250 bs_fader 17 0 1 0;
#X obj 50 250 bs_fader 18 0 1 0;
#X obj 100 250 bs_fader 19 0 1 0;
#X obj 150 250 bs_fader 20 0 1 0;
#X obj 200 250 bs_fader 21 0 1 0;
#X obj 250 250 bs_fader 22 0 1 0;
#X obj 300 250 bs_fader 23 0 1 0;
#X obj 350 250 bs_fader 24 0 1 0;
#X obj 400 250 bs_fader 25 0 1 0;
#X obj 450 250 bs_fader 26 0 1 0;
#X obj 500 250 bs_fader 27 0 1 0;
#X obj 550 250 bs_fader 28 0 1 0;
#X obj 600 250 bs_fader 29 0 1 0;
#X obj 650 250 bs_fader 30 0 1 0;
#X obj 700 250 bs_fader 31 0 1 0;
#X obj 750 250 bs_fader 32 0 1 0;
#X obj 827 4 bng 15 250 50 0 empty empty empty 17 7 0 10 -262144 -1
-1;
#X msg 828 29 send /resound/t1/play 0;
#X msg 827 53 send /resound/t1/stop 0;
#X obj 849 193 * 44100;
#X msg 832 216 send /resound/t1/seek \$1;
#X floatatom 857 168 5 0 0 0 - - -;
#X obj 842 76 tgl 15 0 empty empty empty 17 7 0 10 -262144 -1 -1 1
1;
#X obj 850 99 metro 250;
#X floatatom 962 92 5 0 0 0 - - -;
#X obj 854 123 random 5;
#X floatatom 958 114 5 0 0 0 - - -;
#X floatatom 949 159 5 0 0 0 - - -;
#X obj 856 146 + 0;
#X connect 0 0 1 0;
#X connect 2 0 1 0;
#X connect 3 0 2 0;
#X connect 37 0 1 0;
#X connect 38 0 1 0;
#X connect 39 0 40 0;
#X connect 40 0 1 0;
#X connect 41 0 39 0;
#X connect 42 0 43 0;
#X connect 43 0 45 0;
#X connect 44 0 43 1;
#X connect 45 0 48 0;
#X connect 46 0 45 1;
#X connect 47 0 48 1;
#X connect 48 0 41 0;
