#N canvas 216 225 879 436 10;
#X obj -666 96 expr if($f1 < 0 \, 0 \, $f1);
#X obj -664 150 expr if($f1 > 1 \, 0 \, $f1);
#X floatatom -667 123 5 0 0 0 - - -;
#X floatatom -663 180 5 0 0 0 - - -;
#X obj -500 102 expr if($f1 < 0 \, 0 \, $f1);
#X obj -498 156 expr if($f1 > 1 \, 0 \, $f1);
#X floatatom -501 129 5 0 0 0 - - -;
#X floatatom -497 186 5 0 0 0 - - -;
#X obj -339 102 expr if($f1 < 0 \, 0 \, $f1);
#X obj -337 156 expr if($f1 > 1 \, 0 \, $f1);
#X floatatom -340 129 5 0 0 0 - - -;
#X floatatom -336 186 5 0 0 0 - - -;
#X obj -148 103 expr if($f1 < 0 \, 0 \, $f1);
#X obj -146 157 expr if($f1 > 1 \, 0 \, $f1);
#X floatatom -149 130 5 0 0 0 - - -;
#X floatatom -145 187 5 0 0 0 - - -;
#X obj 12 103 expr if($f1 < 0 \, 0 \, $f1);
#X obj 14 157 expr if($f1 > 1 \, 0 \, $f1);
#X floatatom 11 130 5 0 0 0 - - -;
#X floatatom 15 187 5 0 0 0 - - -;
#X obj -327 -193 hsl 128 15 0 1 0 0 empty empty empty -2 -8 0 10 -262144
-1 -1 12700 1;
#X floatatom -335 -157 5 0 0 0 - - -;
#X floatatom -337 -58 5 0 0 0 - - -;
#X obj -338 -86 wrap;
#X floatatom -655 59 5 0 0 0 - - -;
#X floatatom -339 22 5 0 0 0 - - -;
#X obj -335 -37 * 6.28318;
#X floatatom -124 -58 5 0 0 0 - - -;
#X obj -125 -86 wrap;
#X floatatom -126 22 5 0 0 0 - - -;
#X obj -122 -37 * 6.28318;
#X floatatom -552 -58 5 0 0 0 - - -;
#X obj -553 -86 wrap;
#X floatatom -554 22 5 0 0 0 - - -;
#X obj -550 -37 * 6.28318;
#X floatatom 93 -61 5 0 0 0 - - -;
#X obj 92 -89 wrap;
#X floatatom 91 19 5 0 0 0 - - -;
#X obj 95 -40 * 6.28318;
#X obj -552 -109 + 0;
#X obj -554 -15 expr pow(cos($f1) * 0.5 + 0.5 \, $f2);
#X obj -339 -15 expr pow(cos($f1) * 0.5 + 0.5 \, $f2);
#X obj -126 -15 expr pow(cos($f1) * 0.5 + 0.5 \, $f2);
#X obj 91 -18 expr pow(cos($f1) * 0.5 + 0.5 \, $f2);
#X floatatom 36 -175 5 0 0 0 - - -;
#X obj -337 -109 + -0.25;
#X obj -124 -109 + -0.5;
#X obj 93 -112 + -0.75;
#X connect 0 0 2 0;
#X connect 1 0 3 0;
#X connect 2 0 1 0;
#X connect 4 0 6 0;
#X connect 5 0 7 0;
#X connect 6 0 5 0;
#X connect 8 0 10 0;
#X connect 9 0 11 0;
#X connect 10 0 9 0;
#X connect 12 0 14 0;
#X connect 13 0 15 0;
#X connect 14 0 13 0;
#X connect 16 0 18 0;
#X connect 17 0 19 0;
#X connect 18 0 17 0;
#X connect 20 0 21 0;
#X connect 21 0 39 0;
#X connect 21 0 45 0;
#X connect 21 0 46 0;
#X connect 21 0 47 0;
#X connect 22 0 26 0;
#X connect 23 0 22 0;
#X connect 24 0 0 0;
#X connect 26 0 41 0;
#X connect 27 0 30 0;
#X connect 28 0 27 0;
#X connect 30 0 42 0;
#X connect 31 0 34 0;
#X connect 32 0 31 0;
#X connect 34 0 40 0;
#X connect 35 0 38 0;
#X connect 36 0 35 0;
#X connect 38 0 43 0;
#X connect 39 0 32 0;
#X connect 40 0 33 0;
#X connect 41 0 25 0;
#X connect 42 0 29 0;
#X connect 43 0 37 0;
#X connect 44 0 41 1;
#X connect 44 0 42 1;
#X connect 44 0 43 1;
#X connect 44 0 40 1;
#X connect 45 0 23 0;
#X connect 46 0 28 0;
#X connect 47 0 36 0;
