#N canvas 209 148 879 436 10;
#X obj -666 96 expr if($f1 < 0 \, 0 \, $f1);
#X obj -664 150 expr if($f1 > 1 \, 0 \, $f1);
#X floatatom -667 123 5 0 0 0 - - -;
#X obj -375 -124 hsl 128 15 0 1 0 0 empty empty empty -2 -8 0 10 -262144
-1 -1 0 1;
#X floatatom -378 -99 5 0 0 0 - - -;
#X floatatom -663 180 5 0 0 0 - - -;
#X obj -500 102 expr if($f1 < 0 \, 0 \, $f1);
#X obj -498 156 expr if($f1 > 1 \, 0 \, $f1);
#X floatatom -501 129 5 0 0 0 - - -;
#X floatatom -497 186 5 0 0 0 - - -;
#X text -451 -164 patch highlighting algorithm for phase shifted index
values;
#X obj -339 102 expr if($f1 < 0 \, 0 \, $f1);
#X obj -337 156 expr if($f1 > 1 \, 0 \, $f1);
#X floatatom -340 129 5 0 0 0 - - -;
#X floatatom -336 186 5 0 0 0 - - -;
#X obj -148 103 expr if($f1 < 0 \, 0 \, $f1);
#X obj -146 157 expr if($f1 > 1 \, 0 \, $f1);
#X floatatom -149 130 5 0 0 0 - - -;
#X floatatom -145 187 5 0 0 0 - - -;
#X floatatom -647 54 5 0 0 0 - - -;
#X floatatom -497 69 5 0 0 0 - - -;
#X floatatom -336 65 5 0 0 0 - - -;
#X floatatom -145 76 5 0 0 0 - - -;
#X obj -378 -72 * 3;
#X floatatom -166 -116 5 0 0 0 - - -;
#X floatatom -64 -111 5 0 0 0 - - -;
#X floatatom -192 -38 5 0 0 0 - - -;
#X obj -492 37 expr $f1 - $f2*1;
#X obj -340 37 expr $f1 - $f2*2;
#X obj -153 35 expr $f1 - $f2*3;
#X obj -199 -69 expr (1.0-1.0/$f1)/($f2-1) * $f1;
#X obj 12 103 expr if($f1 < 0 \, 0 \, $f1);
#X obj 14 157 expr if($f1 > 1 \, 0 \, $f1);
#X floatatom 11 130 5 0 0 0 - - -;
#X floatatom 15 187 5 0 0 0 - - -;
#X floatatom 15 76 5 0 0 0 - - -;
#X obj 6 35 expr $f1 - $f2*4;
#X text -15 -108 Number of faders;
#X text -171 -143 phasor slope factor;
#X text -156 -49 this formula gives the correct y offset factor;
#X connect 0 0 2 0;
#X connect 1 0 5 0;
#X connect 2 0 1 0;
#X connect 3 0 4 0;
#X connect 4 0 23 0;
#X connect 6 0 8 0;
#X connect 7 0 9 0;
#X connect 8 0 7 0;
#X connect 11 0 13 0;
#X connect 12 0 14 0;
#X connect 13 0 12 0;
#X connect 15 0 17 0;
#X connect 16 0 18 0;
#X connect 17 0 16 0;
#X connect 19 0 0 0;
#X connect 20 0 6 0;
#X connect 21 0 11 0;
#X connect 22 0 15 0;
#X connect 23 0 19 0;
#X connect 23 0 27 0;
#X connect 23 0 28 0;
#X connect 23 0 29 0;
#X connect 23 0 36 0;
#X connect 24 0 23 1;
#X connect 24 0 30 0;
#X connect 25 0 30 1;
#X connect 26 0 27 1;
#X connect 26 0 28 1;
#X connect 26 0 29 1;
#X connect 26 0 36 1;
#X connect 27 0 20 0;
#X connect 28 0 21 0;
#X connect 29 0 22 0;
#X connect 30 0 26 0;
#X connect 31 0 33 0;
#X connect 32 0 34 0;
#X connect 33 0 32 0;
#X connect 35 0 31 0;
#X connect 36 0 35 0;
