#N canvas 17 105 1182 773 10;
#X obj 200 -61 dac~ 1 2 3 4 5 6 7 8;
#X obj 263 -145 line~;
#X msg 263 -175 1 \, 0 500;
#X obj 245 -112 *~;
#X obj 271 -256 metro 1000;
#X msg 268 -284 1;
#X obj 272 -230 tgl 15 0 empty empty empty 17 7 0 10 -262144 -1 -1
0 1;
#X obj 336 -143 line~;
#X msg 336 -173 1 \, 0 500;
#X obj 273 -110 *~;
#X obj 262 -205 sel 0 1;
#X obj 603 -28 sendOSC;
#X msg 526 -108 connect localhost 8000;
#X obj 569 -275 loadbang;
#X obj 267 -313 loadbang;
#X obj 593 -198 bng 15 250 50 0 empty empty empty 17 7 0 10 -262144
-1 -1;
#X msg 584 -252 1;
#X obj 389 -27 dumpOSC 8001;
#X msg 595 -135 send /syn 8001;
#X obj 389 8 OSCroute /ack;
#X obj 389 50 bng 15 250 50 0 empty empty empty 17 7 0 10 -262144 -1
-1;
#X text 433 -320 active clients must send a period /syn in order to
recieve data back;
#X obj 797 -326 vsl 15 128 0 1 0 0 empty empty empty 0 -9 0 10 -262144
-1 -1 0 1;
#X floatatom 792 -178 5 0 0 0 - - -;
#X obj 789 -148 expr pow($f1 \, 4);
#X floatatom 791 -119 5 0 0 0 - - -;
#X obj 826 -326 vsl 15 128 0 1 0 0 empty empty empty 0 -9 0 10 -262144
-1 -1 0 1;
#X floatatom 910 -175 5 0 0 0 - - -;
#X floatatom 909 -116 5 0 0 0 - - -;
#X msg 743 -92 send /fader1 \$1;
#X msg 861 -89 send /fader2 \$1;
#X obj 182 -180 osc~ 320;
#X obj 855 -324 vsl 15 128 0 1 0 0 empty empty empty 0 -9 0 10 -262144
-1 -1 0 1;
#X floatatom 1024 -174 5 0 0 0 - - -;
#X obj 1021 -144 expr pow($f1 \, 4);
#X floatatom 1023 -115 5 0 0 0 - - -;
#X msg 972 -85 send /fader3 \$1;
#X obj 907 -145 expr pow($f1 \, 4);
#X obj 771 -83 vsl 15 128 0 1 0 0 empty empty empty 0 -9 0 10 -262144
-1 -1 0 1;
#X floatatom 759 64 5 0 0 0 - - -;
#X floatatom 960 58 5 0 0 0 - - -;
#X floatatom 1037 41 5 0 0 0 - - -;
#X obj 770 137 line;
#X msg 772 113 \$1 100;
#X obj 135 -126 *~ 0.8;
#X obj 184 -129 *~ 0.8;
#X obj 38 -206 readsf~ 2;
#X obj 35 -335 bng 15 250 50 0 empty empty empty 17 7 0 10 -262144
-1 -1;
#X msg 58 -240 1;
#X obj 29 -299 t b b;
#X msg 29 -261 open /drive_c/sounds/speech-test.wav;
#X obj 1128 -321 vsl 15 128 0 1 0 0 empty empty empty 0 -9 0 10 -262144
-1 -1 0 1;
#X floatatom 1131 -171 5 0 0 0 - - -;
#X obj 1128 -141 expr pow($f1 \, 4);
#X floatatom 1130 -112 5 0 0 0 - - -;
#X msg 1079 -82 send /fader3 \$1;
#X obj 1108 -21 vsl 15 128 0 1 0 0 empty empty empty 0 -9 0 10 -262144
-1 -1 0 1;
#X floatatom 1111 129 5 0 0 0 - - -;
#X obj 1108 159 expr pow($f1 \, 4);
#X floatatom 1110 188 5 0 0 0 - - -;
#X msg 724 181 send /fader5 \$1;
#X msg 839 186 send /fader6 \$1;
#X msg 984 189 send /fader7 \$1;
#X obj 429 170 grid grid1 200 0 199 200 0 199 1 1 1 10 10 529.502 194.121
;
#X floatatom 415 414 5 0 0 0 - - -;
#X floatatom 603 416 5 0 0 0 - - -;
#X msg 412 444 send /x \$1;
#X msg 603 444 send /z \$1;
#X obj 496 31 line;
#X obj 428 118 pack f f;
#X msg 427 142 values \$1 \$2;
#X obj 452 52 t f f;
#X msg 491 -18 0 \, 1 10000;
#X obj 421 380 expr ($f1 * 0.01 - 1) * 5;
#X obj 608 375 expr ($f1 * 0.01 - 1) * 5;
#X obj 591 -222 metro 1000;
#X obj 109 31 OSCroute /G1 /G2 /G3 /G4 /G5 /G6 /G7 /G8;
#X obj 87 84 rs_oscmeter;
#X obj 191 84 rs_oscmeter;
#X obj 125 -180 osc~ 1000;
#X obj -16 175 rs_oscmeter;
#X obj 292 178 rs_oscmeter;
#X obj -15 267 rs_oscmeter;
#X obj 293 270 rs_oscmeter;
#X obj 92 365 rs_oscmeter;
#X obj 194 365 rs_oscmeter;
#X obj 427 81 expr sin(2.0 * 3.14159* $f1) * 75 + 100;
#X obj 491 104 expr cos(2.0 * 3.14159* $f1) * 75 + 100;
#X connect 1 0 3 1;
#X connect 2 0 1 0;
#X connect 4 0 6 0;
#X connect 5 0 4 0;
#X connect 6 0 10 0;
#X connect 7 0 9 1;
#X connect 8 0 7 0;
#X connect 10 0 2 0;
#X connect 10 1 8 0;
#X connect 12 0 11 0;
#X connect 13 0 12 0;
#X connect 13 0 16 0;
#X connect 14 0 5 0;
#X connect 15 0 18 0;
#X connect 16 0 75 0;
#X connect 17 0 19 0;
#X connect 17 0 76 0;
#X connect 18 0 11 0;
#X connect 19 0 20 0;
#X connect 22 0 23 0;
#X connect 23 0 24 0;
#X connect 24 0 25 0;
#X connect 25 0 29 0;
#X connect 26 0 27 0;
#X connect 27 0 37 0;
#X connect 28 0 30 0;
#X connect 29 0 11 0;
#X connect 30 0 11 0;
#X connect 32 0 33 0;
#X connect 33 0 34 0;
#X connect 34 0 35 0;
#X connect 35 0 36 0;
#X connect 36 0 11 0;
#X connect 37 0 28 0;
#X connect 38 0 39 0;
#X connect 39 0 43 0;
#X connect 40 0 61 0;
#X connect 41 0 62 0;
#X connect 42 0 60 0;
#X connect 43 0 42 0;
#X connect 46 0 44 0;
#X connect 46 1 45 0;
#X connect 47 0 49 0;
#X connect 48 0 46 0;
#X connect 49 0 48 0;
#X connect 49 1 50 0;
#X connect 50 0 46 0;
#X connect 51 0 52 0;
#X connect 52 0 53 0;
#X connect 53 0 54 0;
#X connect 54 0 55 0;
#X connect 55 0 11 0;
#X connect 56 0 57 0;
#X connect 57 0 58 0;
#X connect 58 0 59 0;
#X connect 59 0 40 0;
#X connect 60 0 11 0;
#X connect 61 0 11 0;
#X connect 62 0 11 0;
#X connect 63 0 73 0;
#X connect 63 1 74 0;
#X connect 64 0 66 0;
#X connect 65 0 67 0;
#X connect 66 0 11 0;
#X connect 67 0 11 0;
#X connect 68 0 71 0;
#X connect 69 0 70 0;
#X connect 70 0 63 0;
#X connect 71 0 86 0;
#X connect 71 1 87 0;
#X connect 72 0 68 0;
#X connect 73 0 64 0;
#X connect 74 0 65 0;
#X connect 75 0 15 0;
#X connect 76 0 77 0;
#X connect 76 1 78 0;
#X connect 76 2 80 0;
#X connect 76 3 81 0;
#X connect 76 4 82 0;
#X connect 76 5 83 0;
#X connect 76 6 84 0;
#X connect 76 7 85 0;
#X connect 79 0 0 0;
#X connect 79 0 0 1;
#X connect 86 0 69 0;
#X connect 87 0 69 1;
