#N canvas 382 463 450 300 10;
#X floatatom 102 110 5 0 0 0 - - -;
#X floatatom 102 128 5 0 0 0 - - -;
#X floatatom 102 146 5 0 0 0 - - -;
#X obj 99 70 unpack 0 0 0;
#X obj 261 103 rmstodb;
#X obj 261 125 rmstodb;
#X obj 261 148 rmstodb;
#X floatatom 138 110 5 0 0 0 - - -;
#X floatatom 138 128 5 0 0 0 - - -;
#X floatatom 138 146 5 0 0 0 - - -;
#X obj 178 104 vu 15 80 empty empty -1 -8 0 10 -66577 -1 0 0;
#X obj 263 173 - 100;
#X obj 263 197 - 100;
#X obj 99 39 inlet;
#X connect 3 0 0 0;
#X connect 3 0 4 0;
#X connect 3 1 1 0;
#X connect 3 1 5 0;
#X connect 3 2 2 0;
#X connect 3 2 6 0;
#X connect 4 0 7 0;
#X connect 4 0 11 0;
#X connect 5 0 8 0;
#X connect 5 0 12 0;
#X connect 6 0 9 0;
#X connect 11 0 10 0;
#X connect 12 0 10 1;
#X connect 13 0 3 0;
#X coords 0 -1 1 1 100 90 1 100 100;
