#N canvas 1318 131 1182 649 10;
#X obj 125 -180 osc~ 440;
#X obj 162 47 adc~ 1 2 3 4 5 6 7 8;
#X obj 140 113 env~;
#X floatatom 140 141 5 0 0 0 - - -;
#X obj 194 90 env~;
#X floatatom 194 118 5 0 0 0 - - -;
#X obj 230 90 env~;
#X floatatom 230 118 5 0 0 0 - - -;
#X obj 285 113 env~;
#X floatatom 285 141 5 0 0 0 - - -;
#X obj 138 176 env~;
#X floatatom 138 204 5 0 0 0 - - -;
#X obj 192 208 env~;
#X floatatom 192 236 5 0 0 0 - - -;
#X obj 228 208 env~;
#X floatatom 228 236 5 0 0 0 - - -;
#X obj 285 174 env~;
#X floatatom 285 202 5 0 0 0 - - -;
#X obj 200 -61 dac~ 1 2 3 4 5 6 7 8;
#X obj 263 -145 line~;
#X msg 263 -175 1 \, 0 500;
#X obj 245 -112 *~;
#X obj 271 -256 metro 1000;
#X msg 268 -284 1;
#X obj 272 -230 tgl 15 0 empty empty empty 17 7 0 10 -262144 -1 -1
1 1;
#X obj 336 -143 line~;
#X msg 336 -173 1 \, 0 500;
#X obj 273 -110 *~;
#X obj 262 -205 sel 0 1;
#X obj 603 -28 sendOSC;
#X msg 526 -108 connect localhost 8000;
#X obj 569 -275 loadbang;
#X obj 267 -313 loadbang;
#X obj 591 -222 metro 10000;
#X obj 593 -198 bng 15 250 50 0 empty empty empty 17 7 0 10 -262144
-1 -1;
#X msg 584 -252 1;
#X obj 412 29 dumpOSC 8001;
#X msg 595 -135 send /syn 8001;
#X obj 412 64 OSCroute /ack;
#X obj 412 106 bng 15 250 50 0 empty empty empty 17 7 0 10 -262144
-1 -1;
#X text 433 -320 active clients must send a period /syn in order to
recieve data back;
#X obj 797 -326 vsl 15 128 0 1 0 0 empty empty empty 0 -9 0 10 -262144
-1 -1 7200 1;
#X floatatom 792 -178 5 0 0 0 - - -;
#X obj 789 -148 expr pow($f1 \, 4);
#X floatatom 791 -119 5 0 0 0 - - -;
#X obj 826 -326 vsl 15 128 0 1 0 0 empty empty empty 0 -9 0 10 -262144
-1 -1 3800 1;
#X floatatom 910 -175 5 0 0 0 - - -;
#X floatatom 909 -116 5 0 0 0 - - -;
#X msg 743 -92 send /fader1 \$1;
#X msg 861 -89 send /fader2 \$1;
#X obj 182 -180 osc~ 320;
#X obj 855 -324 vsl 15 128 0 1 0 0 empty empty empty 0 -9 0 10 -262144
-1 -1 9700 1;
#X floatatom 1024 -174 5 0 0 0 - - -;
#X obj 1021 -144 expr pow($f1 \, 4);
#X floatatom 1023 -115 5 0 0 0 - - -;
#X msg 972 -85 send /fader3 \$1;
#X obj 907 -145 expr pow($f1 \, 4);
#X obj 771 -83 vsl 15 128 0 1 0 0 empty empty empty 0 -9 0 10 -262144
-1 -1 4100 1;
#X floatatom 759 64 5 0 0 0 - - -;
#X floatatom 960 58 5 0 0 0 - - -;
#X floatatom 1037 41 5 0 0 0 - - -;
#X obj 770 137 line;
#X msg 772 113 \$1 100;
#X obj 135 -126 *~ 0.8;
#X obj 184 -129 *~ 0.8;
#X obj 38 -206 readsf~ 2;
#X obj 35 -335 bng 15 250 50 0 empty empty empty 17 7 0 10 -262144
-1 -1;
#X msg 58 -240 1;
#X obj 29 -299 t b b;
#X msg 29 -261 open /drive_c/sounds/speech-test.wav;
#X obj 1128 -321 vsl 15 128 0 1 0 0 empty empty empty 0 -9 0 10 -262144
-1 -1 9200 1;
#X floatatom 1131 -171 5 0 0 0 - - -;
#X obj 1128 -141 expr pow($f1 \, 4);
#X floatatom 1130 -112 5 0 0 0 - - -;
#X msg 1079 -82 send /fader3 \$1;
#X obj 1108 -21 vsl 15 128 0 1 0 0 empty empty empty 0 -9 0 10 -262144
-1 -1 0 1;
#X floatatom 1111 129 5 0 0 0 - - -;
#X obj 1108 159 expr pow($f1 \, 4);
#X floatatom 1110 188 5 0 0 0 - - -;
#X msg 724 181 send /fader5 \$1;
#X msg 839 186 send /fader6 \$1;
#X msg 984 189 send /fader7 \$1;
#X connect 1 0 4 0;
#X connect 1 0 18 6;
#X connect 1 1 6 0;
#X connect 1 1 18 7;
#X connect 1 2 2 0;
#X connect 1 3 8 0;
#X connect 1 4 10 0;
#X connect 1 5 16 0;
#X connect 1 6 12 0;
#X connect 1 7 14 0;
#X connect 2 0 3 0;
#X connect 4 0 5 0;
#X connect 6 0 7 0;
#X connect 8 0 9 0;
#X connect 10 0 11 0;
#X connect 12 0 13 0;
#X connect 14 0 15 0;
#X connect 16 0 17 0;
#X connect 19 0 21 1;
#X connect 20 0 19 0;
#X connect 22 0 24 0;
#X connect 23 0 22 0;
#X connect 24 0 28 0;
#X connect 25 0 27 1;
#X connect 26 0 25 0;
#X connect 28 0 20 0;
#X connect 28 1 26 0;
#X connect 30 0 29 0;
#X connect 31 0 30 0;
#X connect 31 0 35 0;
#X connect 32 0 23 0;
#X connect 33 0 34 0;
#X connect 34 0 37 0;
#X connect 35 0 33 0;
#X connect 36 0 38 0;
#X connect 37 0 29 0;
#X connect 38 0 39 0;
#X connect 41 0 42 0;
#X connect 42 0 43 0;
#X connect 43 0 44 0;
#X connect 44 0 48 0;
#X connect 45 0 46 0;
#X connect 46 0 56 0;
#X connect 47 0 49 0;
#X connect 48 0 29 0;
#X connect 49 0 29 0;
#X connect 51 0 52 0;
#X connect 52 0 53 0;
#X connect 53 0 54 0;
#X connect 54 0 55 0;
#X connect 55 0 29 0;
#X connect 56 0 47 0;
#X connect 57 0 58 0;
#X connect 58 0 62 0;
#X connect 59 0 80 0;
#X connect 60 0 81 0;
#X connect 61 0 79 0;
#X connect 62 0 61 0;
#X connect 63 0 18 0;
#X connect 64 0 18 1;
#X connect 65 0 63 0;
#X connect 65 1 64 0;
#X connect 66 0 68 0;
#X connect 67 0 65 0;
#X connect 68 0 67 0;
#X connect 68 1 69 0;
#X connect 69 0 65 0;
#X connect 70 0 71 0;
#X connect 71 0 72 0;
#X connect 72 0 73 0;
#X connect 73 0 74 0;
#X connect 74 0 29 0;
#X connect 75 0 76 0;
#X connect 76 0 77 0;
#X connect 77 0 78 0;
#X connect 78 0 59 0;
#X connect 79 0 29 0;
#X connect 80 0 29 0;
#X connect 81 0 29 0;
